<?xml version="1.0" encoding="UTF-8"?><svg id="b" xmlns="http://www.w3.org/2000/svg" viewBox="0 0 216.5 92.65"><defs><style>.d{fill:#d6edff;}</style></defs><g id="c"><path class="d" d="M37.19,53.99c-23.71-15.67-41.83.34-36.14,13.74,3.74,8.81,37.33,29.77,79.16,14.06,7.08-2.66,14.68,2.32,21.12,5.33,8.69,4.06,17.82,7.53,26.8,4.18,7.16-2.67,13.72-8.11,20.25-13.46,7.14-5.87,12.46-2.6,19.73,1.72,9.56,5.68,19.63,10.76,29.9,10.09,6.47-.42,16.3-3.06,18.18-15.51,2.54-16.84-11.57-26.39-19.35-25.87-8.04.54-15.15,9.53-22-1.35-7.7-12.18-11.01-30.34-20.35-40.07-8.97-9.34-21.81-9.45-30.29,1.6-6.39,8.35-8.92,26.58-18,27.77-9.26,1.2-18.06-9.31-27.44-6.03-6.58,2.31-11.69,12.21-17.03,18.39-8.04,9.3-14.62,11.97-24.54,5.41Z"/></g></svg>