<?xml version="1.0" encoding="UTF-8"?><svg id="b" xmlns="http://www.w3.org/2000/svg" viewBox="0 0 102.31 78.53"><defs><style>.d{fill:#00a99d;}.e{fill:#fff;}</style></defs><g id="c"><path class="d" d="M102.17,60.34c1.23,10.05-5.92,18.19-15.97,18.19H25.7c-10.05,0-19.18-8.15-20.41-18.19L.14,18.2C-1.09,8.15,6.06,0,16.11,0h60.5c10.05,0,19.19,8.15,20.42,18.2l5.15,42.14Z"/><path class="e" d="M12.2,37.11l21.76-9.55.63,5.16s-14.3,5.52-16.83,6.82c2.9,1.34,18.5,6.87,18.5,6.87l.63,5.16-24.09-9.55-.6-4.91Z"/><path class="e" d="M53.97,20.64h5.21l-13.64,41.76h-5.21l13.64-41.76Z"/><path class="e" d="M85.29,42.01l-21.71,9.55-.63-5.16s14.2-5.52,16.82-6.87c-2.89-1.29-18.49-6.82-18.49-6.82l-.63-5.16,24.04,9.55.6,4.91Z"/></g></svg>