<?xml version="1.0" encoding="UTF-8"?><svg id="b" xmlns="http://www.w3.org/2000/svg" viewBox="0 0 105.59 123.15"><defs><style>.d{fill:#ffb681;}.e{fill:#ffd9aa;}.f{fill:#95b8c4;}</style></defs><g id="c"><path class="e" d="M105.39,102.57c1.59,11.36-6.35,20.58-17.71,20.58h-52.58c-11.36,0-21.85-9.22-23.43-20.58L.2,20.58C-1.38,9.21,6.55,0,17.91,0h52.57c11.37,0,21.88,9.21,23.45,20.58l11.46,81.99Z"/><path class="d" d="M78.65,29.91c.25,1.79-1.59,3.25-4.12,3.25H23.11c-2.52,0-4.76-1.46-5.02-3.25-.26-1.8,1.6-3.25,4.12-3.25h51.43c2.52,0,4.75,1.45,5.02,3.25Z"/><path class="d" d="M80.77,45.14c.25,1.8-1.58,3.26-4.1,3.26H25.25c-2.52,0-4.77-1.46-5.03-3.26-.25-1.79,1.59-3.25,4.12-3.25h51.43c2.52,0,4.76,1.46,5.01,3.25Z"/><path class="d" d="M82.9,60.38c.25,1.79-1.59,3.25-4.12,3.25H27.37c-2.52,0-4.76-1.46-5.02-3.25-.26-1.8,1.6-3.25,4.12-3.25h51.43c2.52,0,4.75,1.45,5.01,3.25Z"/><path class="d" d="M85.04,75.62c.24,1.79-1.59,3.25-4.11,3.25H29.5c-2.52,0-4.78-1.46-5.02-3.25-.26-1.8,1.59-3.25,4.11-3.25h51.43c2.52,0,4.76,1.46,5.03,3.25Z"/><path class="f" d="M87.16,90.85c.25,1.8-1.58,3.25-4.1,3.25H31.63c-2.52,0-4.77-1.46-5.03-3.25-.25-1.79,1.59-3.25,4.11-3.25h51.43c2.53,0,4.77,1.46,5.01,3.25Z"/></g></svg>