<?xml version="1.0" encoding="UTF-8"?><svg xmlns="http://www.w3.org/2000/svg" viewBox="0 0 712.26 719.92"><defs><style>.b{mix-blend-mode:multiply;opacity:.5;}.c{fill:#ffb681;}.d{fill:#f0f;}.e{fill:#ffd9aa;}.f{fill:#ff2056;}.g{fill:#ed1e79;}.h{fill:#313438;}.i{isolation:isolate;}.j{fill:#0071bc;}.k{fill:#3a91f9;}.l{fill:#cc5548;}.m{fill:#fff;}.n{fill:#f7931e;}.o{fill:#174972;}.p{fill:#fff3e4;}.q{fill:#fca688;}.r{fill:#da9295;}.s{fill:#f1aea1;}</style></defs><g class="i"><g id="a"><path class="p" d="M286.57,196.43c.47,5.36-3.49,9.7-8.85,9.7H35.88c-5.36,0-10.07-4.34-10.54-9.7L12.82,53.1c-.46-5.36,3.49-9.7,8.85-9.7h241.84c5.36,0,10.07,4.34,10.54,9.7l12.52,143.33Z"/><path class="c" d="M263.51,43.4H21.67c-5.36,0-9.31,4.34-8.85,9.7l2.42,27.69h261.23l-2.41-27.69c-.47-5.36-5.19-9.7-10.54-9.7Z"/><path class="f" d="M51.78,62.34c.45,5.25-3.42,9.51-8.67,9.51s-9.88-4.26-10.34-9.51c-.46-5.25,3.42-9.51,8.68-9.51s9.87,4.26,10.33,9.51Z"/><path class="m" d="M248.25,102.65c.17,3.23-1.27,5.86-3.22,5.86H116.42c-1.95,0-3.67-2.62-3.84-5.86-.17-3.24,1.27-5.86,3.22-5.86h128.61c1.95,0,3.67,2.62,3.84,5.86Z"/><path class="m" d="M186.29,124.29c.17,3.24-1.28,5.86-3.22,5.86h-65.51c-1.95,0-3.67-2.62-3.84-5.86-.17-3.23,1.27-5.86,3.22-5.86h65.51c1.95,0,3.67,2.63,3.84,5.86Z"/><path class="m" d="M229.49,145.95c.17,3.24-1.27,5.86-3.22,5.86h-107.57c-1.95,0-3.67-2.62-3.84-5.86-.17-3.24,1.28-5.86,3.23-5.86h107.57c1.95,0,3.67,2.62,3.84,5.86Z"/><path class="m" d="M243.25,167.6c.17,3.24-1.27,5.86-3.22,5.86h-120.19c-1.95,0-3.67-2.62-3.84-5.86-.17-3.24,1.28-5.87,3.23-5.87h120.19c1.95,0,3.67,2.63,3.84,5.87Z"/><path class="c" d="M100.7,164.08c.21,2.4-1.56,4.35-3.97,4.35h-47.8c-2.4,0-4.51-1.95-4.73-4.35l-5.61-64.27c-.21-2.4,1.57-4.35,3.97-4.35h47.8c2.4,0,4.52,1.95,4.73,4.35l5.61,64.27Z"/><path class="q" d="M191.05,274.94c-2.53-8.48-8.02-13.3-11.77-15.18-8.8-4.41-18.37-8.72-34.41-13.28-8.47-4.08-17.58-11.18-23.87-17.97h0c-21.4-11.54-27.32-20.21-21.57-27.2,3.07-3.73,14.09-.51,21.1,2.63l116.28,1.74s2.79,10.66.75,29.05c3,8.59,5.53,14.6,9.43,24.15l-55.95,16.07Z"/><path class="k" d="M437.43,280.82l-132.89,93.2-49.86-118.35-71.81,21.72s53.08,159.17,64.98,173.57c11.9,14.39,30.86,21.71,52.42,15.48,28.6-8.26,75.21-33.54,75.21-33.54l27.64-8.38,34.32-143.7h0Z"/><path class="l" d="M196.42,236.84c-.45,0-.9-.18-1.23-.53-5.41-5.79-15.4-8.97-22.9-9.54-7.91-.61-28.74-1.09-28.95-1.1h-.6s-.46-.41-.46-.41c-.64-.55-6.3-5.44-7.1-6.2-.5-.48-.99-.95-1.47-1.41-1.83-1.77-3.56-3.44-5.22-4.65-2.96-2.23-5.78-3.16-8.18-2.71-1.89.35-3.5,1.57-4.78,3.63-.94,1.51.54,5.82,5.99,12.05.61.7.54,1.76-.16,2.37-.7.61-1.76.54-2.37-.16-4.35-4.97-8.97-11.8-6.31-16.05,1.78-2.85,4.21-4.63,7.02-5.16,3.35-.62,7.09.53,10.8,3.32,1.83,1.33,3.64,3.08,5.55,4.93.47.46.96.93,1.45,1.4.57.55,4.55,3.99,6.52,5.69,3.56.09,21.19.53,28.53,1.09,8.15.62,19.08,4.15,25.11,10.6.63.68.6,1.74-.08,2.38-.32.3-.74.45-1.15.45Z"/><path class="e" d="M699.9,640.23c2.76,19.8-11.04,35.85-30.83,35.85h-331.47c-19.81,0-38.1-16.05-40.84-35.85l-28.63-204.82c-2.74-19.79,11.05-35.85,30.85-35.85h331.46c19.79,0,38.1,16.06,40.84,35.85l28.63,204.82Z"/><path class="p" d="M701.23,642.73c2.76,19.8-11.04,35.85-30.83,35.85h-244.84c-19.81,0-38.1-16.05-40.84-35.85l-28.63-204.82c-2.74-19.79,11.05-35.85,30.85-35.85h244.83c19.79,0,38.1,16.06,40.84,35.85l28.63,204.82Z"/><path class="c" d="M630.43,399.57h-331.46c-19.8,0-33.59,16.06-30.85,35.85l1.99,14.15h403.15l-2-14.15c-2.74-19.79-21.05-35.85-40.84-35.85Z"/><g class="b"><path class="r" d="M563.3,476.8c.52,3.88-2.56,7.01-6.95,7.01h-130.94c-4.39,0-8.45-3.14-8.95-7.01-.57-3.88,2.58-7.01,6.98-7.01h130.94c4.4,0,8.38,3.13,8.92,7.01Z"/><path class="j" d="M618.47,516.36c.56,3.87-2.55,7.01-6.94,7.01h-130.95c-4.39,0-8.4-3.14-8.95-7.01-.56-3.88,2.6-7.01,6.99-7.01h130.94c4.4,0,8.37,3.13,8.91,7.01Z"/><path class="d" d="M583.42,555.9c.54,3.87-2.57,7.01-6.97,7.01h-130.94c-4.4,0-8.39-3.14-8.94-7.01-.57-3.87,2.59-7.01,6.98-7.01h130.93c4.4,0,8.36,3.14,8.94,7.01Z"/><path class="s" d="M604.83,595.46c.54,3.87-2.58,7.01-6.97,7.01h-130.93c-4.41,0-8.41-3.14-8.94-7.01-.56-3.88,2.58-7.03,6.98-7.03h130.94c4.39,0,8.36,3.15,8.92,7.03Z"/><path class="r" d="M571.39,635.01c.55,3.87-2.58,7.01-6.98,7.01h-62.4c-4.4,0-8.39-3.14-8.95-7.01-.56-3.87,2.59-7.02,6.98-7.02h62.41c4.39,0,8.37,3.15,8.93,7.02Z"/><path class="r" d="M660.51,476.81c.54,3.87-2.57,7.01-6.97,7.01h-62.4c-4.39,0-8.41-3.14-8.94-7.01-.58-3.88,2.58-7.02,6.97-7.02h62.4c4.4,0,8.39,3.14,8.94,7.02Z"/><path class="n" d="M663.72,635.01c.54,3.87-2.58,7.01-6.98,7.01h-62.4c-4.4,0-8.39-3.14-8.94-7.01-.56-3.87,2.58-7.02,6.99-7.02h62.4c4.4,0,8.37,3.15,8.94,7.02Z"/><path class="j" d="M401.86,476.8c.53,3.88-2.55,7.01-6.95,7.01s-8.42-3.14-8.95-7.01c-.57-3.88,2.59-7.01,6.99-7.01s8.37,3.13,8.91,7.01Z"/><path class="s" d="M407.29,515.66c.55,3.87-2.57,7.01-6.97,7.01s-8.4-3.14-8.94-7.01c-.55-3.87,2.59-7.02,6.98-7.02s8.38,3.15,8.93,7.02Z"/><path class="s" d="M412.93,555.9c.53,3.87-2.57,7.01-6.96,7.01s-8.41-3.14-8.95-7.01c-.57-3.87,2.59-7.01,6.98-7.01s8.35,3.14,8.93,7.01Z"/><path class="g" d="M418.45,595.46c.53,3.87-2.58,7.01-6.97,7.01s-8.41-3.14-8.94-7.01c-.56-3.88,2.59-7.03,6.99-7.03s8.37,3.15,8.93,7.03Z"/><path class="s" d="M423.98,635.01c.56,3.87-2.57,7.01-6.97,7.01s-8.39-3.14-8.94-7.01c-.57-3.87,2.58-7.02,6.98-7.02s8.37,3.15,8.93,7.02Z"/></g><circle class="m" cx="559.17" cy="511.4" r="27.67" transform="translate(-197.84 545.18) rotate(-45)"/><path class="q" d="M533.07,637.7c-2.49,6.19-4.7,11.96-5.91,14.83-1.63,22.98-10.92,36.58-16.21,46.32-6.23,11.48-17.89,10.7-21.31,5.61-3.48,4.71-16.36,9.36-18.5-2.45-.03-.18-.23-.26-.32-.1-6.32,11.72-17.47,6.8-19.73-.08-12.78,8.58-20.63.25-15.34-15.12,1.82-5.3,5.17-12.69,6.77-15.98-1.59.81-3.78,2.13-5.32,2.81-7.88,3.45-18.89,7.17-19.44-3.12-.47-8.82,16.89-14.65,28.6-26.73,7.23-7.46,17.59-12.76,29.03-15.41,0,0,2.78-6.31,7.01-16.87l50.65,26.31Z"/><path class="l" d="M443.57,670.64c-.25,0-.5-.05-.73-.17-.84-.41-1.18-1.41-.78-2.25,2.33-4.79,3.29-6.78,6.11-10.33.58-.73,1.64-.85,2.36-.27.73.58.85,1.64.27,2.36-2.59,3.26-3.38,4.89-5.72,9.71-.29.6-.89.95-1.51.95Z"/><path class="l" d="M450.7,703.51c-.16,0-.32-.02-.48-.07-.89-.27-1.4-1.2-1.13-2.09l5.09-17.04c.27-.89,1.2-1.4,2.09-1.13.89.27,1.4,1.2,1.13,2.09l-5.09,17.04c-.22.73-.89,1.2-1.61,1.2Z"/><path class="l" d="M470.81,702.86c-.17,0-.34-.03-.51-.08-.89-.28-1.37-1.23-1.09-2.11l3.64-11.41c.28-.89,1.23-1.37,2.11-1.09.89.28,1.37,1.23,1.09,2.11l-3.64,11.41c-.23.72-.89,1.17-1.6,1.17Z"/><path class="l" d="M490.44,706.23c-.17,0-.34-.03-.51-.08-.89-.28-1.37-1.23-1.09-2.11l3.83-11.99c.28-.89,1.23-1.37,2.11-1.09.89.28,1.37,1.23,1.09,2.11l-3.83,11.99c-.23.72-.89,1.17-1.6,1.17Z"/><path class="k" d="M501.83,423.66c8.92,17.66,17.57,35.43,22.96,48.88l-46.16,138.86,62.26,32.5,79.38-155.86c3.86-8.27,5.52-17.41,4.71-26.5-4.02-45.05-30.4-108.9-52.52-150.49-9.01-16.95-26.35-37.05-49.94-44.23-12.75,10.16-45.2,12.44-54.58,12.27-9.37-.17-28.26-.94-28.26-.94,0,0-24.56,43.31-32.86,58.84-8.29,15.53-13.69,63.34-13.69,63.34l108.67,23.33Z"/><path class="o" d="M500.15,422.03c-.61,0-1.21-.34-1.5-.92-3.92-7.72-7.81-15.27-11.56-22.57-7.08-13.75-13.2-25.63-16.87-33.52-.39-.84-.03-1.84.81-2.24.84-.39,1.84-.03,2.24.81,3.65,7.83,9.75,19.68,16.82,33.4,3.76,7.3,7.65,14.86,11.57,22.59.42.83.09,1.84-.74,2.26-.24.12-.5.18-.76.18Z"/><path class="h" d="M540.98,166.64c39.12-21.86,45.8-81.09,5.41-99.12C530.05,3.02,458.71,3.93,427.03,21.85c-13.7,7.75-24.38,23.39-23.08,42.43-18.93,25.54-.11,50.3,4.78,51.93l132.25,50.44Z"/><path class="q" d="M413.98,92.92c16.78,6.94,58.01,8.08,95.99.69-1.86,20.02,5,42.43,19.07,51.46,10.84,2.59,17.52,13.47,14.93,24.31-2.37,9.9-11.28,16.02-21.4,15.32-4.49,22.36-3.56,60.09-.03,82.12-23.75,17.79-82.43,12.27-82.43,12.27,3.48-15.05,3.24-44.81,3.07-51.13-.4-.02-.79-.05-1.15-.09-34.29-3.12-45.02-18.47-42.13-59.46.75-10.6,9.34-54.35,14.08-75.49Z"/><ellipse class="h" cx="418.93" cy="134.21" rx="7.72" ry="4.53" transform="translate(205.33 518.78) rotate(-78.71)"/><ellipse class="h" cx="480.42" cy="144.78" rx="7.72" ry="4.53" transform="translate(244.41 587.57) rotate(-78.71)"/><path class="l" d="M434.42,172.96c-.07,0-.15,0-.22-.01-2.39-.31-6.18-2.39-8.37-5.33-1.37-1.84-1.94-3.8-1.64-5.67.66-4.12,3.46-5.97,6.71-8.12,1.03-.68,2.09-1.38,3.23-2.23,3.36-2.51,7.1-6.65,9.35-18.28.18-.91,1.06-1.51,1.97-1.33.91.18,1.51,1.06,1.33,1.97-1.96,10.15-5.14,16.24-10.64,20.34-1.22.91-2.37,1.67-3.38,2.34-3.26,2.15-4.84,3.3-5.25,5.85-.15.96.19,2.02,1.02,3.13,1.7,2.28,4.69,3.82,6.11,4,.92.12,1.57.97,1.45,1.89-.11.85-.83,1.46-1.67,1.46Z"/><path class="l" d="M521.61,186.3c-.06,0-.12,0-.19-.01-.69-.08-1.4-.18-2.09-.32h-.06c-1.87-.37-3.61-1.04-5.17-1.99-.79-.48-1.05-1.52-.56-2.31.48-.79,1.52-1.05,2.31-.56,1.84,1.12,3.51,1.44,4.06,1.55h.07c.6.13,1.21.23,1.81.29.92.1,1.59.93,1.49,1.86-.1.86-.82,1.5-1.67,1.5Z"/><path class="l" d="M534.36,168.32c-.14,0-.27-.02-.41-.05-.9-.23-1.45-1.14-1.22-2.04.68-2.71.23-5.39-1.23-7.36-1.45-1.95-3.8-3.11-6.61-3.24-.93-.04-1.64-.83-1.6-1.76.04-.93.82-1.65,1.76-1.6,3.84.19,7.09,1.82,9.15,4.6,2.07,2.79,2.72,6.5,1.8,10.19-.19.76-.88,1.27-1.63,1.27Z"/><path class="l" d="M439.81,197.67c-3.34,0-6.63-.56-9.48-1.62-.87-.32-1.32-1.29-.99-2.16.32-.87,1.29-1.32,2.16-.99,7.33,2.71,18.39,1.66,23.48-4.76.58-.73,1.64-.85,2.36-.27.73.58.85,1.64.27,2.36-4.09,5.15-11.06,7.45-17.8,7.45Z"/><path class="h" d="M435.46,112.24c-.41,0-.83-.12-1.2-.38-8.67-6.02-17.62-7.4-24.55-3.77-1.03.54-2.3.14-2.84-.89-.54-1.03-.14-2.3.89-2.84,3.85-2.01,8.39-2.8,13.12-2.28,5.26.58,10.57,2.71,15.78,6.33.95.66,1.19,1.97.53,2.93-.41.59-1.06.9-1.73.9Z"/><path class="h" d="M501.6,130.34c-.75,0-1.47-.4-1.85-1.1-3.55-6.56-12.58-12.43-24.78-10.77-1.15.16-2.21-.65-2.37-1.8-.16-1.15.65-2.21,1.8-2.37,14.19-1.94,24.82,5.1,29.05,12.93.55,1.02.17,2.3-.85,2.85-.32.17-.66.25-1,.25Z"/><path class="l" d="M446.5,229.73c-.8,0-1.56-.01-2.28-.04-.93-.03-1.66-.81-1.62-1.74.03-.91.78-1.62,1.68-1.62.02,0,.04,0,.06,0,8.69.3,24.01-1.39,31.49-4.12.87-.32,1.84.13,2.16,1,.32.87-.13,1.84-1,2.16-7.42,2.71-21.29,4.36-30.48,4.36Z"/><path class="o" d="M388.21,399.66c-.1,0-.2,0-.31-.03-.91-.17-1.52-1.05-1.35-1.96,4.06-21.93,10.46-40.45,15.11-52.12,1.02-2.55,1.99-5.03,2.93-7.44,7.66-19.59,13.7-35.06,33.3-60.15.57-.73,1.63-.86,2.36-.29.73.57.86,1.63.29,2.36-19.3,24.7-25.26,39.97-32.82,59.3-.94,2.41-1.91,4.9-2.93,7.46-4.59,11.53-10.91,29.83-14.92,51.49-.15.81-.86,1.38-1.65,1.38Z"/></g></g></svg>