<?xml version="1.0" encoding="UTF-8"?><svg id="b" xmlns="http://www.w3.org/2000/svg" viewBox="0 0 710.49 732.54"><defs><style>.i{fill:#009245;}.j{fill:#ff2056;}.k{fill:#313438;}.l{fill:#3a91f9;}.m{fill:#cc5548;}.n{fill:#ff4b27;}.o{fill:#fff;}.p{fill:#bcbcbc;}.q{fill:#174972;}.r{fill:#7f7f7f;}.s{fill:#fca688;}.t{fill:#707477;}</style></defs><g id="c"><g id="d"><path class="p" d="M627.92,336.31c-1.82,0-3.59-.31-5.3-.94-5.77-2.12-9.62-6.79-11.13-13.5-1.38-6.15-.7-13.58,1.96-21.49,5.22-15.5,17.17-29.91,31.96-38.56,6.1-3.57,14.15-7.03,24.06-8.73-.11-1.58-.26-3.13-.47-4.65-2.43-17.96-11.71-31.41-26.83-38.9-21.07-10.44-41.45-8.5-57.47-1.42,2.15,14.21.55,28.02-5.05,36.29-4.04,5.97-9.89,8.77-16.9,8.11-8.19-.78-11.11-4.73-12.13-7.92-2.38-7.49,3.3-18.51,14.46-28.08,4.76-4.08,10.15-7.57,15.89-10.34-1.39-7.62-3.85-15.03-7.21-21.56-7.45-14.48-18.28-22.62-30.5-22.94-.93-.02-1.66-.8-1.64-1.73.02-.93.81-1.66,1.73-1.64,13.51.35,25.37,9.14,33.41,24.76,3.46,6.73,5.93,14.2,7.36,21.67,4.82-2.06,9.86-3.61,14.95-4.58,15.23-2.91,30.23-.77,44.6,6.35,16.17,8.01,26.08,22.35,28.67,41.47.2,1.51.36,3.04.47,4.61,10.33-1.29,22.52-.62,36.49,3.67.89.27,1.39,1.21,1.11,2.1-.27.89-1.22,1.39-2.1,1.11-13.03-4.01-24.85-4.85-35.34-3.46.36,13.8-2.76,29.24-8.9,43.54-5.05,11.75-11.76,21.85-18.88,28.45-5.94,5.5-11.81,8.3-17.27,8.3ZM669.62,256.55c-28.76,5.22-47.03,27.27-52.98,44.91-2.43,7.22-3.1,14.2-1.87,19.68,1.24,5.54,4.36,9.37,9,11.08,7.05,2.59,14.29-2.2,19.12-6.67,6.79-6.28,13.21-15.98,18.08-27.31,5.89-13.71,8.91-28.48,8.64-41.68ZM581.53,209.62c-5.36,2.69-10.16,5.94-14.25,9.45-9.82,8.42-15.35,18.5-13.44,24.51,1.02,3.22,4.13,5.1,9.23,5.59,5.8.55,10.44-1.69,13.8-6.64,3.99-5.9,5.88-15.2,5.3-26.18-.12-2.24-.33-4.49-.64-6.72Z"/><g id="e"><path class="r" d="M97.74,629.65c-.25,0-.51-.06-.75-.18-17.75-8.93-30.45-17.72-38.82-26.87-.53-.58-.77-1.31-.67-2.08.24-2.04,2.69-3.79,6.66-6.46,1.29-.87,3.25-2.19,4.25-3.1-2.06-.29-6.63-.04-9.55.13-7.84.44-11.16.47-12.49-1.12-14.95-17.85-19.25-32.42-19.43-33.03l-.3-1.04,11.85-10.21c-4.46-.38-11.43-1.51-16.91-4.89l-.16-.1-.14-.14c-6.43-6.37-17.93-44.42-20.87-65.41-.64-4.55-.69-7.73,1.05-9.52,1.81-1.88,4.77-1.57,8.87-1.14,9.03.94,26.43,5.02,37.35,12.39l.68.46.05.82c.29,4.37,1.57,9.98,2.97,11.22.99.26,4.64-.97,6.83-1.71,4.83-1.63,7.88-2.56,9.67-1.29,11.06,7.86,21.23,17.84,30.22,29.66,1.74,2.28-.45,5.88-2.99,10.04-1.11,1.81-3.11,5.1-3.16,6.28,1.13.29,4.65-.31,6.8-.68,5.01-.86,8.96-1.54,10.33.82,8.52,14.65,14.66,30.7,17.76,46.41,3.38,17.15,3.27,33.79-.34,49.44-.21.91-1.11,1.47-2.02,1.26-.91-.21-1.47-1.11-1.26-2.02,6.71-29.11.53-63.09-16.96-93.25-1-.37-4.7.26-6.95.65-4.9.84-8.76,1.5-10.21-.68-1.54-2.33.62-5.88,3.13-9.98,1.14-1.86,3.23-5.3,3.13-6.33-8.64-11.33-18.79-21.29-29.37-28.83-.96-.24-4.55.97-6.71,1.69-4.98,1.68-8.12,2.64-9.92,1.22-3.01-2.36-3.99-10.23-4.24-12.85-9.3-5.99-24.91-10.32-35.15-11.39-2.79-.29-5.43-.57-6.1.13-.62.65-.67,2.91-.14,6.72,3.04,21.69,14.24,57.49,19.78,63.36,6.16,3.72,14.57,4.35,17.92,4.45.92.03,1.72.61,2.03,1.48.31.87.06,1.83-.64,2.43l-12.32,10.62c1.24,3.56,6.16,16.08,18.35,30.68,1.18.52,6.36.23,9.81.03,7.88-.45,11.49-.48,12.98,1.07.52.54.76,1.24.68,1.97-.2,1.9-2.41,3.47-6.29,6.08-1.64,1.11-4.28,2.88-5.04,3.85,8,8.6,20.61,17.26,37.51,25.76.83.42,1.16,1.43.75,2.26-.3.59-.89.93-1.5.93ZM66.03,489.17h0s0,0,0,0Z"/><path class="r" d="M111.65,628.63c-.82,0-1.54-.6-1.66-1.43-10.17-67.82-44.24-105.52-76.23-133.45-.7-.61-.77-1.67-.16-2.37s1.67-.77,2.37-.16c32.45,28.33,67.01,66.59,77.34,135.49.14.92-.5,1.78-1.41,1.91-.08.01-.17.02-.25.02Z"/><path class="r" d="M136.33,629.64c-.66,0-1.28-.39-1.55-1.03-.36-.86.04-1.84.89-2.21,15.1-6.39,28.71-20.77,37.35-39.45,6.8-14.7,13.45-38.49,7.03-68.88-17.2,4.63-45.73,16.96-56.5,48.71-.3.88-1.25,1.35-2.13,1.05-.88-.3-1.35-1.25-1.05-2.13,4.71-13.88,13.04-25.51,24.77-34.56,9.9-7.64,21.93-13.28,35.78-16.77l1.67-.42.38,1.68c2.97,13.17,3.76,26.36,2.34,39.22-1.3,11.79-4.4,23.07-9.23,33.52-8.99,19.44-23.24,34.43-39.1,41.14-.21.09-.44.13-.65.13Z"/><path class="r" d="M127.55,601.44c-.12,0-.24-.01-.35-.04-.91-.19-1.49-1.09-1.29-2,4.51-21,15.96-42.06,36.04-66.26.59-.72,1.65-.81,2.37-.22.72.59.81,1.65.22,2.37-19.72,23.77-30.95,44.36-35.34,64.81-.17.79-.87,1.33-1.64,1.33Z"/></g><g id="f"><path class="p" d="M264.56,68.75h-110.53c-1.4,0-2.54-1.14-2.54-2.54V2.54c0-1.4,1.14-2.54,2.54-2.54h110.53c1.4,0,2.54,1.14,2.54,2.54v63.67c0,1.4-1.14,2.54-2.54,2.54ZM154.86,65.39h108.88V3.37h-108.88v62.02Z"/><polygon class="p" points="209.3 44.79 153 3.64 154.98 .92 209.3 40.62 263.91 .7 265.9 3.42 209.3 44.79"/><rect class="p" x="147.84" y="49.04" width="55.4" height="3.37" transform="translate(3.89 113.37) rotate(-36.17)"/><rect class="p" x="241.38" y="23.02" width="3.37" height="55.4" transform="translate(58.67 217.01) rotate(-53.83)"/></g><path class="n" d="M50.26,405.79l-1.45-.73c-.05-.03-1.11-.59-.87-1.82.04-.96-.43-6.64-1.21-14.54l-4.79,4.75c-.75.74-1.9.83-2.76.22-.85-.61-1.13-1.74-.66-2.68l2.33-4.69h-16.3s0,.01,0,.01c-.99,0-1.85-.67-2.08-1.64-.23-.97.23-1.95,1.11-2.4l16.57-8.4-15.61-11.36c-.87-.63-1.13-1.78-.63-2.73.5-.95,1.59-1.37,2.6-1.02,5.57,1.98,14.79,5.24,19.43,6.88-.4-4.06-1.03-10.12-1.41-13.7-.11-1.03.54-1.99,1.54-2.27,1-.29,2.06.19,2.51,1.13l5.81,12.03,11.36-14.92c.64-.83,1.77-1.09,2.7-.6.93.49,1.36,1.57,1.03,2.56l-5.94,17.87,15.47-3.1c1.06-.21,2.08.37,2.44,1.39.35,1.02-.08,2.11-1.04,2.61l-14.19,7.26,5.33,3c.95.54,1.34,1.66.93,2.67-.41,1.01-1.48,1.54-2.53,1.26l-4.1-1.1c2.11,2.48,4.93,5.78,7.5,8.83,2.16,2.56,3.87,4.58,5.06,6.02.67.8,1.21,1.46,1.58,1.92.64.79,1.43,1.78.54,2.86l-.9,1.09-1.24-.7c-.25-.14-3.19-1.93-8.35-5.08-4.46-2.72-9.42-5.74-12.17-7.41-1.93,4.21-6.2,13.64-6.69,14.79-.04.14-.09.23-.14.32l-.8,1.41ZM51.26,403.61c-.01.15-.03.27-.05.36.03-.12.04-.24.05-.36ZM48,403.02c-.02.06-.03.1-.04.15.01-.05.02-.1.04-.15ZM47.7,383.87c.24,0,.49.04.73.13.78.28,1.32.97,1.4,1.79.47,4.72.81,8.21,1.03,10.79.1-.23.21-.46.31-.69,1.5-3.3,3.46-7.62,4.24-9.29.26-.55.73-.97,1.31-1.14.57-.17,1.2-.1,1.72.22,2.23,1.34,7.99,4.85,13.14,7.99-2.85-3.37-6.55-7.72-10.85-12.76-.61-.72-.68-1.73-.18-2.52.36-.57.95-.93,1.6-.99-.42-.41-.65-.97-.64-1.57.02-.79.46-1.5,1.16-1.86l8.33-4.26-8.85,1.77c-.74.15-1.52-.11-2.02-.68-.5-.57-.67-1.37-.43-2.09l4.28-12.88-8.1,10.64h0c-.45.6-1.17.91-1.91.83-.75-.07-1.38-.52-1.71-1.2l-3.62-7.5c.33,3.24.67,6.53.86,8.65.07.75-.22,1.47-.79,1.91-.56.44-1.33.55-2.04.3-2.26-.79-7.86-2.78-13.28-4.69l10.39,7.56c.61.44.93,1.15.87,1.9-.06.75-.5,1.4-1.16,1.74l-13.76,6.97h13.13s0-.01,0-.01c.75,0,1.42.38,1.82,1.01.36.58.42,1.29.17,1.91l1.37-1.35c.41-.41.95-.62,1.5-.62ZM53.19,364.43s0,0,0,0h0Z"/><path class="l" d="M278.86,255.33c-7.19,0-13.04-5.85-13.04-13.04s5.85-13.04,13.04-13.04,13.04,5.85,13.04,13.04-5.85,13.04-13.04,13.04ZM278.86,232.61c-5.34,0-9.68,4.34-9.68,9.68s4.34,9.68,9.68,9.68,9.68-4.34,9.68-9.68-4.34-9.68-9.68-9.68Z"/><g id="g"><path class="s" d="M124.27,293.7c-2.53-8.48-8.02-13.3-11.77-15.18-8.8-4.41-18.37-8.72-34.41-13.28-8.47-4.08-17.58-11.18-23.87-17.97h0c-21.4-11.54-27.32-20.21-21.57-27.2,3.07-3.73,14.09-.51,21.1,2.63l116.28,1.74s2.79,10.66.75,29.05c3,8.59,5.53,14.6,9.43,24.15l-55.95,16.07Z"/><circle class="j" cx="112.74" cy="142.64" r="99.65" transform="translate(-67.84 121.5) rotate(-45)"/><path class="o" d="M112.83,245c-24.71,0-48.68-8.8-67.48-24.77-.71-.6-.79-1.66-.19-2.37.6-.71,1.66-.79,2.37-.19,18.2,15.46,41.39,23.97,65.31,23.97,21.24,0,41.56-6.52,58.77-18.86.76-.54,1.81-.37,2.35.39.54.76.37,1.81-.39,2.35-17.78,12.75-38.78,19.49-60.73,19.49Z"/><path class="o" d="M84.21,99.9c0-2.06,2.23-3.34,4.01-2.31l74.04,42.75c1.78,1.03,1.78,3.6,0,4.62l-74.04,42.75c-1.78,1.03-4.01-.26-4.01-2.31v-85.5Z"/><path class="l" d="M370.64,299.58l-132.89,93.2-49.86-118.35-71.81,21.72s53.08,159.17,64.98,173.57,30.86,21.71,52.42,15.48c28.6-8.26,75.21-33.54,75.21-33.54l27.64-8.38,34.32-143.7h0Z"/><path class="m" d="M129.63,255.6c-.45,0-.9-.18-1.23-.53-5.41-5.79-15.4-8.97-22.9-9.54-7.91-.61-28.74-1.09-28.95-1.1h-.6s-.46-.41-.46-.41c-.64-.55-6.3-5.44-7.1-6.2-.5-.48-.99-.95-1.47-1.41-1.83-1.77-3.56-3.44-5.22-4.65-2.96-2.23-5.78-3.16-8.18-2.71-1.89.35-3.5,1.57-4.78,3.63-.94,1.51.54,5.82,5.99,12.05.61.7.54,1.76-.16,2.37-.7.61-1.76.54-2.37-.16-4.35-4.97-8.97-11.8-6.31-16.05,1.78-2.85,4.21-4.63,7.02-5.16,3.35-.62,7.09.53,10.8,3.32,1.83,1.33,3.64,3.08,5.55,4.93.47.46.96.93,1.45,1.4.57.55,4.55,3.99,6.52,5.69,3.56.09,21.19.53,28.53,1.09,8.15.62,19.08,4.15,25.11,10.6.63.68.6,1.74-.08,2.38-.32.3-.74.45-1.15.45Z"/><path class="t" d="M581.56,629.65H52.01c-.93,0-1.68-.75-1.68-1.68s.75-1.68,1.68-1.68h529.56c.93,0,1.68.75,1.68,1.68s-.75,1.68-1.68,1.68Z"/><rect class="i" x="272.66" y="373.33" width="257.62" height="387.25" rx="5.33" ry="5.33" transform="translate(-237.13 840.46) rotate(-77.88)"/><path class="o" d="M550.07,716.74c-.3,0-.61-.03-.91-.1l-343.82-73.82c-2.34-.5-3.83-2.81-3.33-5.15l46.61-217.08c.24-1.13.91-2.1,1.89-2.73.97-.63,2.13-.84,3.27-.6l343.82,73.82c2.34.5,3.83,2.81,3.33,5.15l-46.61,217.08c-.44,2.03-2.24,3.43-4.24,3.43ZM252.86,420.53c-.19,0-.37.05-.53.16-.22.14-.37.36-.42.61l-46.61,217.08c-.11.52.22,1.04.75,1.15l343.82,73.82c.52.11,1.04-.22,1.15-.75l46.61-217.08c.11-.52-.22-1.04-.75-1.15l-343.82-73.82c-.07-.01-.14-.02-.21-.02Z"/><circle class="o" cx="492.38" cy="530.16" r="27.67" transform="translate(-230.66 503.45) rotate(-45)"/><path class="o" d="M253.87,608.25l260.08,56.28s-8.63-87.77-38.9-95.58c-19.53-5.04-54.15,7.6-66.42,2.86-23.22-8.98-29.32-77.72-53.46-83.79-41.17-10.34-101.3,120.24-101.3,120.24Z"/><path class="s" d="M466.28,656.46c-2.49,6.19-4.7,11.96-5.91,14.83-1.63,22.98-10.92,36.58-16.21,46.32-6.23,11.48-17.89,10.7-21.31,5.61-3.48,4.71-16.36,9.36-18.5-2.45-.03-.18-.23-.26-.32-.1-6.32,11.72-17.47,6.8-19.73-.08-12.78,8.58-20.63.25-15.34-15.12,1.82-5.3,5.17-12.69,6.77-15.98-1.59.81-3.78,2.13-5.32,2.81-7.88,3.45-18.89,7.17-19.44-3.12-.47-8.82,16.89-14.65,28.6-26.73,7.23-7.46,17.59-12.76,29.03-15.41,0,0,2.78-6.31,7.01-16.87l50.65,26.31Z"/><path class="m" d="M376.78,689.4c-.25,0-.5-.05-.73-.17-.84-.41-1.18-1.41-.78-2.25,2.33-4.79,3.29-6.78,6.11-10.33.58-.73,1.64-.85,2.36-.27.73.58.85,1.64.27,2.36-2.59,3.26-3.38,4.89-5.72,9.71-.29.6-.89.95-1.51.95Z"/><path class="m" d="M383.91,722.27c-.16,0-.32-.02-.48-.07-.89-.27-1.4-1.2-1.13-2.09l5.09-17.04c.27-.89,1.2-1.4,2.09-1.13.89.27,1.4,1.2,1.13,2.09l-5.09,17.04c-.22.73-.89,1.2-1.61,1.2Z"/><path class="m" d="M404.02,721.62c-.17,0-.34-.03-.51-.08-.89-.28-1.37-1.23-1.09-2.11l3.64-11.41c.28-.89,1.23-1.37,2.11-1.09.89.28,1.37,1.23,1.09,2.11l-3.64,11.41c-.23.72-.89,1.17-1.6,1.17Z"/><path class="m" d="M423.65,724.99c-.17,0-.34-.03-.51-.08-.89-.28-1.37-1.23-1.09-2.11l3.83-11.99c.28-.89,1.23-1.37,2.11-1.09.89.28,1.37,1.23,1.09,2.11l-3.83,11.99c-.23.72-.89,1.17-1.6,1.17Z"/><path class="l" d="M435.04,442.41c8.92,17.66,17.57,35.43,22.96,48.88l-46.16,138.86,62.26,32.5,79.38-155.86c3.86-8.27,5.52-17.41,4.71-26.5-4.02-45.05-30.4-108.9-52.52-150.49-9.01-16.95-26.35-37.05-49.94-44.23-12.75,10.16-45.2,12.44-54.58,12.27-9.37-.17-28.26-.94-28.26-.94,0,0-24.56,43.31-32.86,58.84-8.29,15.53-13.69,63.34-13.69,63.34l108.67,23.33Z"/><path class="q" d="M433.37,440.79c-.61,0-1.21-.34-1.5-.92-3.92-7.72-7.81-15.27-11.56-22.57-7.08-13.75-13.2-25.63-16.87-33.52-.39-.84-.03-1.84.81-2.24.84-.39,1.84-.03,2.24.81,3.65,7.83,9.75,19.68,16.82,33.4,3.76,7.3,7.65,14.86,11.57,22.59.42.83.09,1.84-.74,2.26-.24.12-.5.18-.76.18Z"/><path class="k" d="M474.19,185.4c39.12-21.86,45.8-81.09,5.41-99.12-16.34-64.51-87.68-63.6-119.36-45.68-13.7,7.75-24.38,23.39-23.08,42.43-18.93,25.54-.11,50.3,4.78,51.93l132.25,50.44Z"/><path class="s" d="M347.19,111.68c16.78,6.94,58.01,8.08,95.99.69-1.86,20.02,5,42.43,19.07,51.46,10.84,2.59,17.52,13.47,14.93,24.31-2.37,9.9-11.28,16.02-21.4,15.32-4.49,22.36-3.56,60.09-.03,82.12-23.75,17.79-82.43,12.27-82.43,12.27,3.48-15.05,3.24-44.81,3.07-51.13-.4-.02-.79-.05-1.15-.09-34.29-3.12-45.02-18.47-42.13-59.46.75-10.6,9.34-54.35,14.08-75.49Z"/><ellipse class="k" cx="352.15" cy="152.97" rx="7.72" ry="4.53" transform="translate(133.22 468.37) rotate(-78.71)"/><ellipse class="k" cx="413.63" cy="163.54" rx="7.72" ry="4.53" transform="translate(172.3 537.16) rotate(-78.71)"/><path class="m" d="M367.64,191.71c-.07,0-.15,0-.22-.01-2.39-.31-6.18-2.39-8.37-5.33-1.37-1.84-1.94-3.8-1.64-5.67.66-4.12,3.46-5.97,6.71-8.12,1.03-.68,2.09-1.38,3.23-2.23,3.36-2.51,7.1-6.65,9.35-18.28.18-.91,1.06-1.51,1.97-1.33.91.18,1.51,1.06,1.33,1.97-1.96,10.15-5.14,16.24-10.64,20.34-1.22.91-2.37,1.67-3.38,2.34-3.26,2.15-4.84,3.3-5.25,5.85-.15.96.19,2.02,1.02,3.13,1.7,2.28,4.69,3.82,6.11,4,.92.12,1.57.97,1.45,1.89-.11.85-.83,1.46-1.67,1.46Z"/><path class="m" d="M454.83,205.05c-.06,0-.12,0-.19-.01-.69-.08-1.4-.18-2.09-.32h-.06c-1.87-.37-3.61-1.04-5.17-1.99-.79-.48-1.05-1.52-.56-2.31.48-.79,1.52-1.05,2.31-.56,1.84,1.12,3.51,1.44,4.06,1.55h.07c.6.13,1.21.23,1.81.29.92.1,1.59.93,1.49,1.86-.1.86-.82,1.5-1.67,1.5Z"/><path class="m" d="M467.58,187.08c-.14,0-.27-.02-.41-.05-.9-.23-1.45-1.14-1.22-2.04.68-2.71.23-5.39-1.23-7.36-1.45-1.95-3.8-3.11-6.61-3.24-.93-.04-1.64-.83-1.6-1.76.04-.93.82-1.65,1.76-1.6,3.84.19,7.09,1.82,9.15,4.6,2.07,2.79,2.72,6.5,1.8,10.19-.19.76-.88,1.27-1.63,1.27Z"/><path class="m" d="M373.03,216.43c-3.34,0-6.63-.56-9.48-1.62-.87-.32-1.32-1.29-.99-2.16.32-.87,1.29-1.32,2.16-.99,7.33,2.71,18.39,1.66,23.48-4.76.58-.73,1.64-.85,2.36-.27.73.58.85,1.64.27,2.36-4.09,5.15-11.06,7.45-17.8,7.45Z"/><path class="k" d="M368.67,131c-.41,0-.83-.12-1.2-.38-8.67-6.02-17.62-7.4-24.55-3.77-1.03.54-2.3.14-2.84-.89-.54-1.03-.14-2.3.89-2.84,3.85-2.01,8.39-2.8,13.12-2.28,5.26.58,10.57,2.71,15.78,6.33.95.66,1.19,1.97.53,2.93-.41.59-1.06.9-1.73.9Z"/><path class="k" d="M434.82,149.1c-.75,0-1.47-.4-1.85-1.1-3.55-6.56-12.58-12.43-24.78-10.77-1.15.16-2.21-.65-2.37-1.8-.16-1.15.65-2.21,1.8-2.37,14.19-1.94,24.82,5.1,29.05,12.93.55,1.02.17,2.3-.85,2.85-.32.17-.66.25-1,.25Z"/><path class="m" d="M379.72,248.48c-.8,0-1.56-.01-2.28-.04-.93-.03-1.66-.81-1.62-1.74.03-.91.78-1.62,1.68-1.62.02,0,.04,0,.06,0,8.69.3,24.01-1.39,31.49-4.12.87-.32,1.84.13,2.16,1,.32.87-.13,1.84-1,2.16-7.42,2.71-21.29,4.36-30.48,4.36Z"/><path class="k" d="M477.74,91.39c-.29,0-.59-.06-.88-.19-1.06-.48-1.52-1.73-1.03-2.79,5.62-12.24,1.4-22.48,1.35-22.58-.45-1.07.05-2.3,1.12-2.76,1.07-.45,2.3.05,2.76,1.12.21.49,4.98,12.07-1.4,25.98-.35.77-1.12,1.23-1.91,1.23Z"/><path class="q" d="M321.42,418.42c-.1,0-.2,0-.31-.03-.91-.17-1.52-1.05-1.35-1.96,4.06-21.93,10.46-40.45,15.11-52.12,1.02-2.55,1.99-5.03,2.93-7.44,7.66-19.59,13.7-35.06,33.3-60.15.57-.73,1.63-.86,2.36-.29.73.57.86,1.63.29,2.36-19.3,24.7-25.26,39.97-32.82,59.3-.94,2.41-1.91,4.9-2.93,7.46-4.59,11.53-10.91,29.83-14.92,51.49-.15.81-.86,1.38-1.65,1.38Z"/></g><g id="h"><path class="r" d="M621.41,442.73h-.03c-14.5-.23-29-5.53-37.74-10.4-6.56-3.66-13.31-8.12-13.66-13.53-.15-2.26.83-4.42,2.92-6.44-3.21-2.82-5.05-6.94-4.59-10.61.27-2.12,1.54-5.81,6.89-8.21-2.21-3.64-2.82-7.51-1.62-10.67.88-2.3,3.12-5.22,8.76-6.75-.91-2.65-.93-5.32-.03-7.82,1.17-3.26,3.83-5.98,7.29-7.47,5.72-2.45,15.19,2.76,28.54,12.13,2.34-5.64,8.45-18.7,15.78-20.97,2.19-.68,4.36-.33,6.27,1,7.17,4.99,4.07,13.24,1.34,20.52-.46,1.22-.93,2.48-1.35,3.69-4.43,12.96-2.7,16.53-.32,21.47.87,1.81,1.86,3.86,2.65,6.52.26.89-.25,1.83-1.14,2.09-.89.26-1.83-.25-2.09-1.14-.71-2.41-1.6-4.24-2.45-6.01-2.53-5.23-4.71-9.75.16-24.02.43-1.26.91-2.54,1.38-3.79,3.06-8.14,4.57-13.32-.11-16.57-1.07-.75-2.14-.92-3.35-.54-5.03,1.56-11,11.96-14.43,20.96l-.77,2.03-1.77-1.26c-10.68-7.59-22.23-15.07-27.01-13.02-2.6,1.12-4.59,3.13-5.44,5.51-.8,2.22-.56,4.68.7,7.11l1.04,2.01-2.23.41c-3.1.57-7.05,1.92-8.26,5.1-1.16,3.05.48,6.77,2.4,9.24l1.47,1.89-2.28.74c-4.01,1.31-6.32,3.46-6.66,6.23-.38,3.02,1.66,6.67,4.84,8.69l2.07,1.31-1.97,1.46c-2.27,1.68-3.36,3.34-3.26,4.94.25,3.86,6.94,8.01,11.94,10.81,8.38,4.67,22.28,9.75,36.15,9.97.93.02,1.67.78,1.66,1.71-.02.92-.77,1.66-1.68,1.66Z"/><path class="l" d="M642.31,402.5l-22.77,41.27c-.48.88-.13,1.98.77,2.42l20.64,9.91c.84.4,1.85.08,2.29-.74l21.93-40.42c.46-.85.15-1.91-.7-2.37l-19.81-10.77c-.84-.46-1.9-.15-2.36.69Z"/></g></g></g></svg>