<?xml version="1.0" encoding="UTF-8"?><svg id="b" xmlns="http://www.w3.org/2000/svg" viewBox="0 0 2303.81 1019.06"><defs><style>.d{fill:#f5f5f5;fill-rule:evenodd;}</style></defs><g id="c"><path class="d" d="M2242.11,446.85c-1.95-32.11-3.89-64.23-5.84-96.34h-81.74c-60.15,99.42-174.58,337.32-306.54,350.33-29.2-15.2-49.32-25.99-49.63-70.07,36-36,72.02-72.02,108.02-108.02,82.12-102.85,165.87-192.44,218.96-326.97,26.42-66.97,24.82-201.41-64.23-195.6-67.51,4.4-109.92,80.3-140.13,125.53-59.12,88.52-116.18,190.47-157.65,294.86-19.63,49.4-19.92,107.23-43.79,160.57-19.19,42.89-117.32,114.9-175.17,122.62-26.83,3.58-48.26-11.53-67.15-17.52-.97-1.95-1.95-3.89-2.92-5.84,91.38-35.16,308.07-266.82,116.78-344.49-141.35-57.39-237.25,89.85-256.91,189.76-11.05,56.17,7.28,108.77,20.44,148.89-117.75,48.9-183,.04-216.04-108.02,67.14-72.01,134.3-144.03,201.44-216.04h-105.1c-39.89,41.84-79.8,83.69-119.7,125.53-5.84,4.87-11.68,9.73-17.52,14.6-24.33-46.71-48.66-93.43-72.99-140.13h-87.58c34.06,67.14,68.12,134.3,102.18,201.44-68.31,92.62-191.06,170.63-344.49,134.29v-2.92c58.64-65.97,217.64-115.17,183.92-256.91-8.39-35.26-21.11-61.68-46.71-78.82-172.86-115.75-324.35,152.19-262.75,318.22-51.44,26.21-106.11,45.76-186.84,43.79,28.59-41.12,71.71-61.54,93.42-113.86,43.23-104.17,24.91-307.64-128.45-265.67-67.95,18.6-93.81,72.16-145.97,99.26,5.84-25.3,11.68-50.61,17.52-75.9v-2.92h-84.66C89.53,572.37,44.76,794.29,0,1016.14v2.92h87.58c14.6-72.98,29.2-145.98,43.79-218.96,29.59-130.55,39.67-236.04,108.02-321.14,21.09-26.26,73.73-79.8,128.45-67.15,45.93,10.62,59.23,86.76,43.79,140.13-22.24,76.89-100.92,138.13-192.68,93.42-4.87,21.41-9.73,42.82-14.6,64.23,64.51,81.39,323.06,102.95,405.8,20.44,35.35,9.32,59.46,37.14,99.26,46.71,131.56,31.64,318.74-61.57,353.25-134.29,5.84-4.87,11.68-9.73,17.52-14.6,28.01,73.13,94.22,175.64,216.04,151.81,42.39-8.29,74.21-31.21,110.94-43.79,124.7,87.23,226.63,29.38,318.22-40.87,18.6,24.86,29.01,53.29,55.47,70.07,41.61,26.38,120.03,13.56,157.65-5.84,84.46-43.54,205.59-194.36,230.63-294.86h2.92c35.62,51.79,85.82,200.44,5.84,236.47-30.73,13.84-53.92,2.2-75.9-14.6-16.54,19.46-33.09,38.93-49.63,58.39,96.53,85.56,225.67,11.92,248.15-93.42,17.58-82.37-39.76-150.08-58.39-204.36ZM2052.35,90.68c24.37,27.29-15.04,91.59-23.36,110.94-30.5,70.96-66.72,127.61-110.94,183.92-26.27,29.19-52.55,58.39-78.82,87.58-1.95.97-3.89,1.95-5.84,2.92,42.43-148.11,136.86-274.44,218.96-385.36ZM648.11,616.18c-27.72-112.64,22.91-176.68,96.34-216.04,20.55.51,26.71,4.28,40.87,8.76,62.36,90.59-76.67,179.7-134.29,210.2l-2.92-2.92ZM1521.02,400.14c21.44.15,29.91,3.78,43.79,8.76,62.22,90-76.3,180.62-134.29,210.2-53.71-99.33,34.97-185.17,90.5-218.96Z"/></g></svg>